<mxfile>
    <diagram id="R2lEEEUBdFMjLlhIrx00" name="Page-1">
        <mxGraphModel dx="1049" dy="1129" grid="1" gridSize="10" guides="1" tooltips="1" connect="1" arrows="1" fold="1" page="1" pageScale="1" pageWidth="850" pageHeight="1100" math="0" shadow="0" extFonts="Permanent Marker^https://fonts.googleapis.com/css?family=Permanent+Marker">
            <root>
                <mxCell id="0"/>
                <mxCell id="1" parent="0"/>
                <mxCell id="C-vyLk0tnHw3VtMMgP7b-13" value="User" style="shape=table;startSize=30;container=1;collapsible=1;childLayout=tableLayout;fixedRows=0;rowLines=1;fontStyle=1;align=center;resizeLast=1;columnLines=0;resizeLastRow=0;" parent="1" vertex="1">
                    <mxGeometry x="300" y="225" width="250" height="90" as="geometry"/>
                </mxCell>
                <mxCell id="C-vyLk0tnHw3VtMMgP7b-14" value="" style="shape=partialRectangle;collapsible=0;dropTarget=0;pointerEvents=0;fillColor=none;points=[[0,0.5],[1,0.5]];portConstraint=eastwest;top=0;left=0;right=0;bottom=1;" parent="C-vyLk0tnHw3VtMMgP7b-13" vertex="1">
                    <mxGeometry y="30" width="250" height="20" as="geometry"/>
                </mxCell>
                <mxCell id="C-vyLk0tnHw3VtMMgP7b-15" value="user_id" style="shape=partialRectangle;overflow=hidden;connectable=0;fillColor=none;top=0;left=0;bottom=0;right=0;fontStyle=0;align=left;" parent="C-vyLk0tnHw3VtMMgP7b-14" vertex="1">
                    <mxGeometry width="130" height="20" as="geometry"/>
                </mxCell>
                <mxCell id="C-vyLk0tnHw3VtMMgP7b-16" value="int" style="shape=partialRectangle;overflow=hidden;connectable=0;fillColor=none;top=0;left=0;bottom=0;right=0;align=left;spacingLeft=6;fontStyle=4;" parent="C-vyLk0tnHw3VtMMgP7b-14" vertex="1">
                    <mxGeometry x="130" width="120" height="20" as="geometry"/>
                </mxCell>
                <mxCell id="C-vyLk0tnHw3VtMMgP7b-17" value="" style="shape=partialRectangle;collapsible=0;dropTarget=0;pointerEvents=0;fillColor=none;points=[[0,0.5],[1,0.5]];portConstraint=eastwest;top=0;left=0;right=0;bottom=0;" parent="C-vyLk0tnHw3VtMMgP7b-13" vertex="1">
                    <mxGeometry y="50" width="250" height="20" as="geometry"/>
                </mxCell>
                <mxCell id="C-vyLk0tnHw3VtMMgP7b-18" value="email" style="shape=partialRectangle;overflow=hidden;connectable=0;fillColor=none;top=0;left=0;bottom=0;right=0;align=left;" parent="C-vyLk0tnHw3VtMMgP7b-17" vertex="1">
                    <mxGeometry width="130" height="20" as="geometry"/>
                </mxCell>
                <mxCell id="C-vyLk0tnHw3VtMMgP7b-19" value="varchar(255)" style="shape=partialRectangle;overflow=hidden;connectable=0;fillColor=none;top=0;left=0;bottom=0;right=0;align=left;spacingLeft=6;" parent="C-vyLk0tnHw3VtMMgP7b-17" vertex="1">
                    <mxGeometry x="130" width="120" height="20" as="geometry"/>
                </mxCell>
                <mxCell id="C-vyLk0tnHw3VtMMgP7b-20" value="" style="shape=partialRectangle;collapsible=0;dropTarget=0;pointerEvents=0;fillColor=none;points=[[0,0.5],[1,0.5]];portConstraint=eastwest;top=0;left=0;right=0;bottom=0;" parent="C-vyLk0tnHw3VtMMgP7b-13" vertex="1">
                    <mxGeometry y="70" width="250" height="20" as="geometry"/>
                </mxCell>
                <mxCell id="C-vyLk0tnHw3VtMMgP7b-21" value="password" style="shape=partialRectangle;overflow=hidden;connectable=0;fillColor=none;top=0;left=0;bottom=0;right=0;perimeterSpacing=1;align=left;dashed=1;dashPattern=1 1;" parent="C-vyLk0tnHw3VtMMgP7b-20" vertex="1">
                    <mxGeometry width="130" height="20" as="geometry"/>
                </mxCell>
                <mxCell id="C-vyLk0tnHw3VtMMgP7b-22" value="varchar(255)" style="shape=partialRectangle;overflow=hidden;connectable=0;fillColor=none;top=0;left=0;bottom=0;right=0;align=left;spacingLeft=6;perimeterSpacing=1;dashed=1;dashPattern=1 1;" parent="C-vyLk0tnHw3VtMMgP7b-20" vertex="1">
                    <mxGeometry x="130" width="120" height="20" as="geometry"/>
                </mxCell>
                <mxCell id="43" value="Contact Form Entry" style="shape=table;startSize=30;container=1;collapsible=1;childLayout=tableLayout;fixedRows=0;rowLines=1;fontStyle=1;align=center;resizeLast=1;columnLines=0;resizeLastRow=0;" vertex="1" parent="1">
                    <mxGeometry x="300" y="345" width="250" height="150" as="geometry"/>
                </mxCell>
                <mxCell id="44" value="" style="shape=partialRectangle;collapsible=0;dropTarget=0;pointerEvents=0;fillColor=none;points=[[0,0.5],[1,0.5]];portConstraint=eastwest;top=0;left=0;right=0;bottom=1;" vertex="1" parent="43">
                    <mxGeometry y="30" width="250" height="20" as="geometry"/>
                </mxCell>
                <mxCell id="45" value="entry_id" style="shape=partialRectangle;overflow=hidden;connectable=0;fillColor=none;top=0;left=0;bottom=0;right=0;fontStyle=0;align=left;" vertex="1" parent="44">
                    <mxGeometry width="130" height="20" as="geometry"/>
                </mxCell>
                <mxCell id="46" value="int" style="shape=partialRectangle;overflow=hidden;connectable=0;fillColor=none;top=0;left=0;bottom=0;right=0;align=left;spacingLeft=6;fontStyle=4;" vertex="1" parent="44">
                    <mxGeometry x="130" width="120" height="20" as="geometry"/>
                </mxCell>
                <mxCell id="47" value="" style="shape=partialRectangle;collapsible=0;dropTarget=0;pointerEvents=0;fillColor=none;points=[[0,0.5],[1,0.5]];portConstraint=eastwest;top=0;left=0;right=0;bottom=0;" vertex="1" parent="43">
                    <mxGeometry y="50" width="250" height="20" as="geometry"/>
                </mxCell>
                <mxCell id="48" value="name" style="shape=partialRectangle;overflow=hidden;connectable=0;fillColor=none;top=0;left=0;bottom=0;right=0;align=left;" vertex="1" parent="47">
                    <mxGeometry width="130" height="20" as="geometry"/>
                </mxCell>
                <mxCell id="49" value="varchar(255)" style="shape=partialRectangle;overflow=hidden;connectable=0;fillColor=none;top=0;left=0;bottom=0;right=0;align=left;spacingLeft=6;" vertex="1" parent="47">
                    <mxGeometry x="130" width="120" height="20" as="geometry"/>
                </mxCell>
                <mxCell id="50" value="" style="shape=partialRectangle;collapsible=0;dropTarget=0;pointerEvents=0;fillColor=none;points=[[0,0.5],[1,0.5]];portConstraint=eastwest;top=0;left=0;right=0;bottom=0;" vertex="1" parent="43">
                    <mxGeometry y="70" width="250" height="20" as="geometry"/>
                </mxCell>
                <mxCell id="51" value="phoneNumber" style="shape=partialRectangle;overflow=hidden;connectable=0;fillColor=none;top=0;left=0;bottom=0;right=0;perimeterSpacing=1;align=left;dashed=1;dashPattern=1 1;" vertex="1" parent="50">
                    <mxGeometry width="130" height="20" as="geometry"/>
                </mxCell>
                <mxCell id="52" value="int" style="shape=partialRectangle;overflow=hidden;connectable=0;fillColor=none;top=0;left=0;bottom=0;right=0;align=left;spacingLeft=6;perimeterSpacing=1;dashed=1;dashPattern=1 1;" vertex="1" parent="50">
                    <mxGeometry x="130" width="120" height="20" as="geometry"/>
                </mxCell>
                <mxCell id="53" style="shape=partialRectangle;collapsible=0;dropTarget=0;pointerEvents=0;fillColor=none;points=[[0,0.5],[1,0.5]];portConstraint=eastwest;top=0;left=0;right=0;bottom=0;" vertex="1" parent="43">
                    <mxGeometry y="90" width="250" height="20" as="geometry"/>
                </mxCell>
                <mxCell id="54" value="email" style="shape=partialRectangle;overflow=hidden;connectable=0;fillColor=none;top=0;left=0;bottom=0;right=0;perimeterSpacing=1;align=left;dashed=1;dashPattern=1 1;" vertex="1" parent="53">
                    <mxGeometry width="130" height="20" as="geometry"/>
                </mxCell>
                <mxCell id="55" value="varchar(255)" style="shape=partialRectangle;overflow=hidden;connectable=0;fillColor=none;top=0;left=0;bottom=0;right=0;align=left;spacingLeft=6;perimeterSpacing=1;dashed=1;dashPattern=1 1;" vertex="1" parent="53">
                    <mxGeometry x="130" width="120" height="20" as="geometry"/>
                </mxCell>
                <mxCell id="56" style="shape=partialRectangle;collapsible=0;dropTarget=0;pointerEvents=0;fillColor=none;points=[[0,0.5],[1,0.5]];portConstraint=eastwest;top=0;left=0;right=0;bottom=0;" vertex="1" parent="43">
                    <mxGeometry y="110" width="250" height="20" as="geometry"/>
                </mxCell>
                <mxCell id="57" value="message" style="shape=partialRectangle;overflow=hidden;connectable=0;fillColor=none;top=0;left=0;bottom=0;right=0;perimeterSpacing=1;align=left;dashed=1;dashPattern=1 1;" vertex="1" parent="56">
                    <mxGeometry width="130" height="20" as="geometry"/>
                </mxCell>
                <mxCell id="58" value="varchar(1000)" style="shape=partialRectangle;overflow=hidden;connectable=0;fillColor=none;top=0;left=0;bottom=0;right=0;align=left;spacingLeft=6;perimeterSpacing=1;dashed=1;dashPattern=1 1;" vertex="1" parent="56">
                    <mxGeometry x="130" width="120" height="20" as="geometry"/>
                </mxCell>
                <mxCell id="62" style="shape=partialRectangle;collapsible=0;dropTarget=0;pointerEvents=0;fillColor=none;points=[[0,0.5],[1,0.5]];portConstraint=eastwest;top=0;left=0;right=0;bottom=0;" vertex="1" parent="43">
                    <mxGeometry y="130" width="250" height="20" as="geometry"/>
                </mxCell>
                <mxCell id="63" value="timestamp" style="shape=partialRectangle;overflow=hidden;connectable=0;fillColor=none;top=0;left=0;bottom=0;right=0;perimeterSpacing=1;align=left;dashed=1;dashPattern=1 1;" vertex="1" parent="62">
                    <mxGeometry width="130" height="20" as="geometry"/>
                </mxCell>
                <mxCell id="64" value="int" style="shape=partialRectangle;overflow=hidden;connectable=0;fillColor=none;top=0;left=0;bottom=0;right=0;align=left;spacingLeft=6;perimeterSpacing=1;dashed=1;dashPattern=1 1;" vertex="1" parent="62">
                    <mxGeometry x="130" width="120" height="20" as="geometry"/>
                </mxCell>
                <mxCell id="65" value="Resume Entry" style="shape=table;startSize=30;container=1;collapsible=1;childLayout=tableLayout;fixedRows=0;rowLines=1;fontStyle=1;align=center;resizeLast=1;columnLines=0;resizeLastRow=0;" vertex="1" parent="1">
                    <mxGeometry x="300" y="535" width="250" height="170" as="geometry"/>
                </mxCell>
                <mxCell id="66" value="" style="shape=partialRectangle;collapsible=0;dropTarget=0;pointerEvents=0;fillColor=none;points=[[0,0.5],[1,0.5]];portConstraint=eastwest;top=0;left=0;right=0;bottom=1;" vertex="1" parent="65">
                    <mxGeometry y="30" width="250" height="20" as="geometry"/>
                </mxCell>
                <mxCell id="67" value="resume_id" style="shape=partialRectangle;overflow=hidden;connectable=0;fillColor=none;top=0;left=0;bottom=0;right=0;fontStyle=0;align=left;" vertex="1" parent="66">
                    <mxGeometry width="130" height="20" as="geometry"/>
                </mxCell>
                <mxCell id="68" value="int" style="shape=partialRectangle;overflow=hidden;connectable=0;fillColor=none;top=0;left=0;bottom=0;right=0;align=left;spacingLeft=6;fontStyle=4;" vertex="1" parent="66">
                    <mxGeometry x="130" width="120" height="20" as="geometry"/>
                </mxCell>
                <mxCell id="69" value="" style="shape=partialRectangle;collapsible=0;dropTarget=0;pointerEvents=0;fillColor=none;points=[[0,0.5],[1,0.5]];portConstraint=eastwest;top=0;left=0;right=0;bottom=0;" vertex="1" parent="65">
                    <mxGeometry y="50" width="250" height="20" as="geometry"/>
                </mxCell>
                <mxCell id="70" value="logo" style="shape=partialRectangle;overflow=hidden;connectable=0;fillColor=none;top=0;left=0;bottom=0;right=0;align=left;" vertex="1" parent="69">
                    <mxGeometry width="130" height="20" as="geometry"/>
                </mxCell>
                <mxCell id="71" value="varchar(255)" style="shape=partialRectangle;overflow=hidden;connectable=0;fillColor=none;top=0;left=0;bottom=0;right=0;align=left;spacingLeft=6;" vertex="1" parent="69">
                    <mxGeometry x="130" width="120" height="20" as="geometry"/>
                </mxCell>
                <mxCell id="72" value="" style="shape=partialRectangle;collapsible=0;dropTarget=0;pointerEvents=0;fillColor=none;points=[[0,0.5],[1,0.5]];portConstraint=eastwest;top=0;left=0;right=0;bottom=0;" vertex="1" parent="65">
                    <mxGeometry y="70" width="250" height="20" as="geometry"/>
                </mxCell>
                <mxCell id="73" value="jobTitle" style="shape=partialRectangle;overflow=hidden;connectable=0;fillColor=none;top=0;left=0;bottom=0;right=0;perimeterSpacing=1;align=left;dashed=1;dashPattern=1 1;" vertex="1" parent="72">
                    <mxGeometry width="130" height="20" as="geometry"/>
                </mxCell>
                <mxCell id="74" value="varchar(255)" style="shape=partialRectangle;overflow=hidden;connectable=0;fillColor=none;top=0;left=0;bottom=0;right=0;align=left;spacingLeft=6;perimeterSpacing=1;dashed=1;dashPattern=1 1;" vertex="1" parent="72">
                    <mxGeometry x="130" width="120" height="20" as="geometry"/>
                </mxCell>
                <mxCell id="75" style="shape=partialRectangle;collapsible=0;dropTarget=0;pointerEvents=0;fillColor=none;points=[[0,0.5],[1,0.5]];portConstraint=eastwest;top=0;left=0;right=0;bottom=0;" vertex="1" parent="65">
                    <mxGeometry y="90" width="250" height="20" as="geometry"/>
                </mxCell>
                <mxCell id="76" value="company" style="shape=partialRectangle;overflow=hidden;connectable=0;fillColor=none;top=0;left=0;bottom=0;right=0;perimeterSpacing=1;align=left;dashed=1;dashPattern=1 1;" vertex="1" parent="75">
                    <mxGeometry width="130" height="20" as="geometry"/>
                </mxCell>
                <mxCell id="77" value="varchar(255)" style="shape=partialRectangle;overflow=hidden;connectable=0;fillColor=none;top=0;left=0;bottom=0;right=0;align=left;spacingLeft=6;perimeterSpacing=1;dashed=1;dashPattern=1 1;" vertex="1" parent="75">
                    <mxGeometry x="130" width="120" height="20" as="geometry"/>
                </mxCell>
                <mxCell id="78" style="shape=partialRectangle;collapsible=0;dropTarget=0;pointerEvents=0;fillColor=none;points=[[0,0.5],[1,0.5]];portConstraint=eastwest;top=0;left=0;right=0;bottom=0;" vertex="1" parent="65">
                    <mxGeometry y="110" width="250" height="20" as="geometry"/>
                </mxCell>
                <mxCell id="79" value="startDate" style="shape=partialRectangle;overflow=hidden;connectable=0;fillColor=none;top=0;left=0;bottom=0;right=0;perimeterSpacing=1;align=left;dashed=1;dashPattern=1 1;" vertex="1" parent="78">
                    <mxGeometry width="130" height="20" as="geometry"/>
                </mxCell>
                <mxCell id="80" value="int" style="shape=partialRectangle;overflow=hidden;connectable=0;fillColor=none;top=0;left=0;bottom=0;right=0;align=left;spacingLeft=6;perimeterSpacing=1;dashed=1;dashPattern=1 1;" vertex="1" parent="78">
                    <mxGeometry x="130" width="120" height="20" as="geometry"/>
                </mxCell>
                <mxCell id="81" style="shape=partialRectangle;collapsible=0;dropTarget=0;pointerEvents=0;fillColor=none;points=[[0,0.5],[1,0.5]];portConstraint=eastwest;top=0;left=0;right=0;bottom=0;" vertex="1" parent="65">
                    <mxGeometry y="130" width="250" height="20" as="geometry"/>
                </mxCell>
                <mxCell id="82" value="endDate" style="shape=partialRectangle;overflow=hidden;connectable=0;fillColor=none;top=0;left=0;bottom=0;right=0;perimeterSpacing=1;align=left;dashed=1;dashPattern=1 1;" vertex="1" parent="81">
                    <mxGeometry width="130" height="20" as="geometry"/>
                </mxCell>
                <mxCell id="83" value="int" style="shape=partialRectangle;overflow=hidden;connectable=0;fillColor=none;top=0;left=0;bottom=0;right=0;align=left;spacingLeft=6;perimeterSpacing=1;dashed=1;dashPattern=1 1;" vertex="1" parent="81">
                    <mxGeometry x="130" width="120" height="20" as="geometry"/>
                </mxCell>
                <mxCell id="84" style="shape=partialRectangle;collapsible=0;dropTarget=0;pointerEvents=0;fillColor=none;points=[[0,0.5],[1,0.5]];portConstraint=eastwest;top=0;left=0;right=0;bottom=0;" vertex="1" parent="65">
                    <mxGeometry y="150" width="250" height="20" as="geometry"/>
                </mxCell>
                <mxCell id="85" value="bulletPoints" style="shape=partialRectangle;overflow=hidden;connectable=0;fillColor=none;top=0;left=0;bottom=0;right=0;perimeterSpacing=1;align=left;dashed=1;dashPattern=1 1;" vertex="1" parent="84">
                    <mxGeometry width="130" height="20" as="geometry"/>
                </mxCell>
                <mxCell id="86" value="varchar(500)" style="shape=partialRectangle;overflow=hidden;connectable=0;fillColor=none;top=0;left=0;bottom=0;right=0;align=left;spacingLeft=6;perimeterSpacing=1;dashed=1;dashPattern=1 1;" vertex="1" parent="84">
                    <mxGeometry x="130" width="120" height="20" as="geometry"/>
                </mxCell>
                <mxCell id="87" value="Resume Entry" style="shape=table;startSize=30;container=1;collapsible=1;childLayout=tableLayout;fixedRows=0;rowLines=1;fontStyle=1;align=center;resizeLast=1;columnLines=0;resizeLastRow=0;" vertex="1" parent="1">
                    <mxGeometry x="300" y="745" width="250" height="130" as="geometry"/>
                </mxCell>
                <mxCell id="88" value="" style="shape=partialRectangle;collapsible=0;dropTarget=0;pointerEvents=0;fillColor=none;points=[[0,0.5],[1,0.5]];portConstraint=eastwest;top=0;left=0;right=0;bottom=1;" vertex="1" parent="87">
                    <mxGeometry y="30" width="250" height="20" as="geometry"/>
                </mxCell>
                <mxCell id="89" value="portfolio_id" style="shape=partialRectangle;overflow=hidden;connectable=0;fillColor=none;top=0;left=0;bottom=0;right=0;fontStyle=0;align=left;" vertex="1" parent="88">
                    <mxGeometry width="130" height="20" as="geometry"/>
                </mxCell>
                <mxCell id="90" value="int" style="shape=partialRectangle;overflow=hidden;connectable=0;fillColor=none;top=0;left=0;bottom=0;right=0;align=left;spacingLeft=6;fontStyle=4;" vertex="1" parent="88">
                    <mxGeometry x="130" width="120" height="20" as="geometry"/>
                </mxCell>
                <mxCell id="91" value="" style="shape=partialRectangle;collapsible=0;dropTarget=0;pointerEvents=0;fillColor=none;points=[[0,0.5],[1,0.5]];portConstraint=eastwest;top=0;left=0;right=0;bottom=0;" vertex="1" parent="87">
                    <mxGeometry y="50" width="250" height="20" as="geometry"/>
                </mxCell>
                <mxCell id="92" value="title" style="shape=partialRectangle;overflow=hidden;connectable=0;fillColor=none;top=0;left=0;bottom=0;right=0;align=left;" vertex="1" parent="91">
                    <mxGeometry width="130" height="20" as="geometry"/>
                </mxCell>
                <mxCell id="93" value="varchar(255)" style="shape=partialRectangle;overflow=hidden;connectable=0;fillColor=none;top=0;left=0;bottom=0;right=0;align=left;spacingLeft=6;" vertex="1" parent="91">
                    <mxGeometry x="130" width="120" height="20" as="geometry"/>
                </mxCell>
                <mxCell id="94" value="" style="shape=partialRectangle;collapsible=0;dropTarget=0;pointerEvents=0;fillColor=none;points=[[0,0.5],[1,0.5]];portConstraint=eastwest;top=0;left=0;right=0;bottom=0;" vertex="1" parent="87">
                    <mxGeometry y="70" width="250" height="20" as="geometry"/>
                </mxCell>
                <mxCell id="95" value="description" style="shape=partialRectangle;overflow=hidden;connectable=0;fillColor=none;top=0;left=0;bottom=0;right=0;perimeterSpacing=1;align=left;dashed=1;dashPattern=1 1;" vertex="1" parent="94">
                    <mxGeometry width="130" height="20" as="geometry"/>
                </mxCell>
                <mxCell id="96" value="varchar(255)" style="shape=partialRectangle;overflow=hidden;connectable=0;fillColor=none;top=0;left=0;bottom=0;right=0;align=left;spacingLeft=6;perimeterSpacing=1;dashed=1;dashPattern=1 1;" vertex="1" parent="94">
                    <mxGeometry x="130" width="120" height="20" as="geometry"/>
                </mxCell>
                <mxCell id="97" style="shape=partialRectangle;collapsible=0;dropTarget=0;pointerEvents=0;fillColor=none;points=[[0,0.5],[1,0.5]];portConstraint=eastwest;top=0;left=0;right=0;bottom=0;" vertex="1" parent="87">
                    <mxGeometry y="90" width="250" height="20" as="geometry"/>
                </mxCell>
                <mxCell id="98" value="image" style="shape=partialRectangle;overflow=hidden;connectable=0;fillColor=none;top=0;left=0;bottom=0;right=0;perimeterSpacing=1;align=left;dashed=1;dashPattern=1 1;" vertex="1" parent="97">
                    <mxGeometry width="130" height="20" as="geometry"/>
                </mxCell>
                <mxCell id="99" value="varchar(255)" style="shape=partialRectangle;overflow=hidden;connectable=0;fillColor=none;top=0;left=0;bottom=0;right=0;align=left;spacingLeft=6;perimeterSpacing=1;dashed=1;dashPattern=1 1;" vertex="1" parent="97">
                    <mxGeometry x="130" width="120" height="20" as="geometry"/>
                </mxCell>
                <mxCell id="100" style="shape=partialRectangle;collapsible=0;dropTarget=0;pointerEvents=0;fillColor=none;points=[[0,0.5],[1,0.5]];portConstraint=eastwest;top=0;left=0;right=0;bottom=0;" vertex="1" parent="87">
                    <mxGeometry y="110" width="250" height="20" as="geometry"/>
                </mxCell>
                <mxCell id="101" value="url" style="shape=partialRectangle;overflow=hidden;connectable=0;fillColor=none;top=0;left=0;bottom=0;right=0;perimeterSpacing=1;align=left;dashed=1;dashPattern=1 1;" vertex="1" parent="100">
                    <mxGeometry width="130" height="20" as="geometry"/>
                </mxCell>
                <mxCell id="102" value="varchar(255)" style="shape=partialRectangle;overflow=hidden;connectable=0;fillColor=none;top=0;left=0;bottom=0;right=0;align=left;spacingLeft=6;perimeterSpacing=1;dashed=1;dashPattern=1 1;" vertex="1" parent="100">
                    <mxGeometry x="130" width="120" height="20" as="geometry"/>
                </mxCell>
                <mxCell id="109" value="Kelly White's Personal Website &lt;br&gt;Schema Diagram" style="text;html=1;strokeColor=none;fillColor=none;align=center;verticalAlign=middle;whiteSpace=wrap;rounded=0;dashed=1;dashPattern=1 2;fontStyle=1;fontSize=35;" vertex="1" parent="1">
                    <mxGeometry x="60" y="50" width="730" height="70" as="geometry"/>
                </mxCell>
            </root>
        </mxGraphModel>
    </diagram>
</mxfile>